<svg width="26" height="25" viewBox="0 0 26 25" fill="none" xmlns="http://www.w3.org/2000/svg">
<path d="M22.5586 2.5H21.1698V0H18.392V2.5H7.28087V0H4.50309V2.5H3.1142C1.57254 2.5 0.350315 3.625 0.350315 5L0.336426 22.5C0.336426 23.875 1.57254 25 3.1142 25H22.5586C24.0864 25 25.3364 23.875 25.3364 22.5V5C25.3364 3.625 24.0864 2.5 22.5586 2.5ZM22.5586 22.5H3.1142V10H22.5586V22.5ZM8.66976 15H5.89198V12.5H8.66976V15ZM14.2253 15H11.4475V12.5H14.2253V15ZM19.7809 15H17.0031V12.5H19.7809V15ZM8.66976 20H5.89198V17.5H8.66976V20ZM14.2253 20H11.4475V17.5H14.2253V20ZM19.7809 20H17.0031V17.5H19.7809V20Z" fill="black"/>
</svg>
