<svg width="25" height="25" viewBox="0 0 25 25" fill="none" xmlns="http://www.w3.org/2000/svg">
<path d="M3.125 25C2.26562 25 1.53021 24.7205 0.91875 24.1614C0.30625 23.6014 0 22.9286 0 22.1429V9.28571C0 8.83333 0.110937 8.40476 0.332812 8C0.553646 7.59524 0.859375 7.2619 1.25 7L10.625 0.571429C10.9115 0.380953 11.2109 0.238095 11.5234 0.142857C11.8359 0.0476189 12.1615 0 12.5 0C12.8385 0 13.1641 0.0476189 13.4766 0.142857C13.7891 0.238095 14.0885 0.380953 14.375 0.571429L23.75 7C24.1406 7.2619 24.4469 7.59524 24.6688 8C24.8896 8.40476 25 8.83333 25 9.28571V22.1429C25 22.9286 24.6943 23.6014 24.0828 24.1614C23.4703 24.7205 22.7344 25 21.875 25H15.625V15H9.375V25H3.125Z" fill="#4CAF50"/>
</svg>
