<svg width="26" height="25" viewBox="0 0 26 25" fill="none" xmlns="http://www.w3.org/2000/svg">
<path d="M19.1281 12.575L17.6559 11.25L10.8781 17.35L7.93365 14.7L6.46143 16.025L10.8781 20L19.1281 12.575ZM22.5586 2.5H21.1698V0H18.392V2.5H7.28087V0H4.50309V2.5H3.1142C1.57254 2.5 0.350315 3.625 0.350315 5L0.336426 22.5C0.336426 23.875 1.57254 25 3.1142 25H22.5586C24.0864 25 25.3364 23.875 25.3364 22.5V5C25.3364 3.625 24.0864 2.5 22.5586 2.5ZM22.5586 22.5H3.1142V8.75H22.5586V22.5Z" fill="black"/>
</svg>
